# xmcd
#
# Track frame offsets: 
#        150
#        21183
#        43079
#        66878
#        79338
#        99941
#        116885
#        130143
#        148876
#        166416
#        183791
#        206777
#        230686
#
# Disc length: 3987 seconds
#
# Revision: 0
# Processed by: cddbd v1.5.2PL0 Copyright (c) Steve Scherf et al.
# Submitted via: ExactAudioCopyFreeDBPlugin 1.0
#
DISCID=bc0f910d
DTITLE=Sugarfoot - The Santa Ana
DYEAR=2017
DGENRE=Country
TTITLE0=The Nightingale
TTITLE1=All dried up
TTITLE2=A repossessed blues
TTITLE3=Hungry man
TTITLE4=Schmogne
TTITLE5=My buzzing telephone
TTITLE6=Blisters on my mind
TTITLE7=Already counting
TTITLE8=Costal postcard
TTITLE9=Snakes and ladders
TTITLE10=A cog in your wheel
TTITLE11=Mighty Pharaoh
TTITLE12=Santa Ana (Hats off to Shakey)
EXTD=
EXTT0=
EXTT1=
EXTT2=
EXTT3=
EXTT4=
EXTT5=
EXTT6=
EXTT7=
EXTT8=
EXTT9=
EXTT10=
EXTT11=
EXTT12=
PLAYORDER=
